# xmcd
#
# Track frame offsets: 
#        150
#        14587
#        29873
#        45362
#        60875
#        77227
#        93723
#        109084
#        127483
#        145855
#        161533
#        177017
#        195724
#        212530
#        227103
#        242772
#        257284
#        277065
#        297933
#        315288
#
# Disc length: 4453 seconds
#
# Revision: 0
# Processed by: cddbd v1.5.1PL0 Copyright (c) Steve Scherf et al.
# Submitted via: ExactAudioCopy v0.95a3
#
DISCID=1e116314
DTITLE=Various Artist - Русский Хит 17
DYEAR=2000
DGENRE=Pop
TTITLE0=Галина Журавлёва - Анапа
TTITLE1=Виктор Королёв - Ах, Это Было
TTITLE2=Нэнси - Две Недели
TTITLE3=Балаган Лимитед - Чё Тенадо 2000 (Dance Mix)
TTITLE4=Евгений Осин - Не Ходи Со Мною Рядом 2000 (Dance Mix)
TTITLE5=Унесённые Ветром - Папа Предложил
TTITLE6=Основной Инстинкт - Бич-Пати
TTITLE7=Иванушки International - Фонари
TTITLE8=Сергей Любавин - Сумашедшая Любовь
TTITLE9=Елена Волгина - Зачем
TTITLE10=Чичерина - Жара
TTITLE11=Алла Пугачёва - Мадам Брошкина
TTITLE12=Високосный Год - Метро
TTITLE13=Рок-Острова - Ты Никогда Не Поймёшь
TTITLE14=Алёна Свиридова - Дай Мне Слово
TTITLE15=Паскаль - Девочка Лето
TTITLE16=Борис Моисеев - Кораблик
TTITLE17=Крестьяне.Ru - Золотой Кораблик
TTITLE18=Мюзикола - Солнце
TTITLE19=Влад Сташевский - Тише
EXTD=
EXTT0=
EXTT1=
EXTT2=
EXTT3=
EXTT4=
EXTT5=
EXTT6=
EXTT7=
EXTT8=
EXTT9=
EXTT10=
EXTT11=
EXTT12=
EXTT13=
EXTT14=
EXTT15=
EXTT16=
EXTT17=
EXTT18=
EXTT19=
PLAYORDER=
